#define desk_toggled_width 12
#define desk_toggled_height 7
static unsigned char desk_toggled_bits[] = {
   0x00, 0x00, 0xf8, 0x01, 0xff, 0x0f, 0xff, 0x0f, 0xff, 0x0f, 0xf8, 0x01,
   0x00, 0x00 };
