#define max_toggled_width 12
#define max_toggled_height 7
static unsigned char max_toggled_bits[] = {
   0x00, 0x00, 0xff, 0x0f, 0xff, 0x0f, 0x07, 0x0e, 0xff, 0x0f, 0xff, 0x0f,
   0x00, 0x00 };
