#define shade_width 12
#define shade_height 7
static unsigned char shade_bits[] = {
   0x00, 0x00, 0x98, 0x01, 0x98, 0x01, 0x98, 0x01, 0x9f, 0x0f, 0x9f, 0x0f,
   0x00, 0x00 };
