#define shade_toggled_width 12
#define shade_toggled_height 7
static unsigned char shade_toggled_bits[] = {
   0x00, 0x00, 0x9f, 0x0f, 0x9f, 0x0f, 0x98, 0x01, 0x98, 0x01, 0x98, 0x01,
   0x00, 0x00 };
